<svg id="Layer_1" data-name="Layer 1" xmlns="http://www.w3.org/2000/svg" xmlns:xlink="http://www.w3.org/1999/xlink" viewBox="0 0 1351.74 290.5"><defs><style>.cls-1{fill:url(#linear-gradient);}.cls-2{fill:#fff;}</style><linearGradient id="linear-gradient" y1="145.25" x2="253.26" y2="145.25" gradientUnits="userSpaceOnUse"><stop offset="0" stop-color="#0cf"/><stop offset="1" stop-color="#3f9"/></linearGradient></defs><title>CanSellArtboard 12</title><path class="cls-1" d="M0,290.5l202.81-85.41L138.65,140ZM74.49,75,138.65,140,253.26,0Z"/><path class="cls-2" d="M352.75,106.63H321V90H403v16.66H371.35v94h-18.6Z"/><path class="cls-2" d="M442.75,90H461.2v47.86h46.65V90h18.6v110.7h-18.6v-46.2H461.2v46.2H442.75Z"/><path class="cls-2" d="M590.35,197.3Q580.9,193,576.1,181t-4.8-35.32q0-23.25,4.87-35.55T590.5,93.35q9.45-4.42,25.35-4.43t25.57,4.43q9.52,4.43,14.33,16.65t4.8,35.63q0,23.25-4.88,35.32T641.42,197.3q-9.37,4.27-25.57,4.28T590.35,197.3Zm41.32-15.38q5.48-3,7.88-11.32t2.4-25q0-17.25-2.48-25.8t-7.87-11.41q-5.4-2.83-15.75-2.84-10.05,0-15.45,2.92t-7.95,11.4q-2.55,8.47-2.55,25.73,0,16.8,2.32,25T600,181.92q5.4,3,15.9,3Q626.2,184.92,631.67,181.92Z"/><path class="cls-2" d="M705.4,90h45q14.1,0,22.35,7.43T781,124.33q0,14.7-5.18,21.44a28,28,0,0,1-13.57,9.61l21.3,45.29H764.8l-19.2-42.59q-9.15,0-21.75-.31v42.9H705.4Zm41.85,53.25q7.2,0,11.17-4.12t4-14.77q0-10.2-4-14t-11.17-3.75h-23.4v36.59Z"/><path class="cls-2" d="M839.8,197.15q-8.4-4.43-12.83-16.73t-4.42-35.54q0-22.07,4.5-34.28t13.2-16.95q8.68-4.73,22.5-4.73a116.31,116.31,0,0,1,18.07,1.43,119.1,119.1,0,0,1,15.53,3.37V108q-4.5-.89-12.83-1.64t-17-.75q-9.9,0-15.23,3.07t-7.72,11.48q-2.4,8.4-2.4,25t2.25,25.05q2.25,8.42,7.5,11.55t15.45,3.15a237.55,237.55,0,0,0,30-1.65v14.25q-13.65,4-34.05,4.06Q848.2,201.58,839.8,197.15Z"/><path class="cls-2" d="M940,90h18.45v47.86h46.65V90h18.6v110.7h-18.6v-46.2H958.45v46.2H940Z"/><path class="cls-2" d="M1100.5,90h23.4l36,110.7h-19.35L1132,174.42h-40l-8.4,26.25h-19Zm27,67.8-15.6-51.89-15.6,51.89Z"/><path class="cls-2" d="M1200.55,90H1219v110.7h-18.45Z"/><path class="cls-2" d="M1267.89,90h14.85l50.4,79.05V90h18.6v110.7h-14.85l-50.4-79v79h-18.6Z"/></svg>